#!OML:ASF I:\golf\golf\golf 2\Subject 1\2002-09-07\Subject1.ASF
:FULLY-SPECIFIED
:DEGREES
519
root 1.23162 17.993 -7.00206 4.09421 1.224 -6.1113
lowerback -2.34194 -0.351564 -2.07408
upperback -0.227431 -0.47776 5.28552
thorax 1.14386 -0.262154 6.64465
lowerneck -19.6062 -0.515374 -0.18947
upperneck 36.1169 1.48034 -5.50194
head 16.2896 -0.219389 -2.08876
rclavicle 1.36416e-014 -3.4191e-014
rhumerus -31.2664 -15.4153 -71.5881
rradius 19.4118
rwrist -4.46545
rhand -19.7491 8.12783
rfingers 7.12502
rthumb 6.58199 -21.7499
lclavicle 1.36416e-014 -3.4191e-014
lhumerus -29.5495 2.6865 83.4363
lradius 34.236
lwrist 9.36233
lhand -14.3167 32.8288
lfingers 7.12502
lthumb 11.8237 62.475
rfemur -22.2085 -6.81452 22.4547
rtibia 44.502
rfoot -13.0585 -12.6239
rtoes 1.60796
lfemur -6.25964 4.75151 -17.3187
ltibia 24.3511
lfoot -17.7865 -1.75921
ltoes 0.640204
520
root 1.2193 17.9937 -7.01113 4.16455 1.25678 -5.95579
lowerback -2.45401 -0.342924 -2.14722
upperback -0.35077 -0.459211 5.16205
thorax 1.07652 -0.248661 6.55576
lowerneck -19.6415 -0.533494 -0.0556132
upperneck 35.8939 1.37722 -5.47038
head 16.1791 -0.23728 -2.10999
rclavicle -1.83876e-014 5.00937e-014
rhumerus -31.5199 -16.3465 -71.1948
rradius 18.8526
rwrist -3.45494
rhand -19.4933 8.42886
rfingers 7.12502
rthumb 6.82898 -21.441
lclavicle -1.83876e-014 5.00937e-014
lhumerus -29.654 2.65708 83.4799
lradius 33.9342
lwrist 8.90299
lhand -14.0445 32.6877
lfingers 7.12502
lthumb 12.0862 62.3187
rfemur -21.8558 -6.80179 22.1466
rtibia 44.4735
rfoot -13.1276 -12.5415
rtoes 3.02792
lfemur -6.32003 4.65668 -17.4679
ltibia 24.2804
lfoot -17.7664 -1.72632
ltoes 1.16241
521
root 1.2064 17.9956 -7.0164 4.27749 1.28684 -5.94179
lowerback -2.70633 -0.362827 -2.14091
upperback -0.447613 -0.483867 5.14659
thorax 1.12125 -0.260002 6.53425
lowerneck -19.6294 -0.531808 -0.0271932
upperneck 35.5983 1.34773 -5.45592
head 16.0258 -0.240999 -2.10262
rclavicle -2.62147e-014 -1.03368e-014
rhumerus -31.6851 -17.0702 -70.7731
rradius 18.3263
rwrist -2.47853
rhand -19.2586 8.47182
rfingers 7.12502
rthumb 7.05557 -21.3906
lclavicle -2.62147e-014 -1.03368e-014
lhumerus -29.7428 2.83882 83.5723
lradius 33.5857
lwrist 8.36344
lhand -13.5914 32.5923
lfingers 7.12502
lthumb 12.5231 62.1971
rfemur -21.5202 -6.80807 22.0259
rtibia 44.4211
rfoot -13.3844 -12.4898
rtoes 6.51368
lfemur -6.38872 4.38039 -17.4689
ltibia 24.1604
lfoot -17.7682 -1.60304
ltoes 1.98741
522
root 1.19502 17.9986 -7.01817 4.32198 1.19681 -5.93296
lowerback -2.92761 -0.343227 -2.12999
upperback -0.503384 -0.45703 5.13672
thorax 1.18426 -0.246702 6.51816
lowerneck -19.6376 -0.500795 -0.0989449
upperneck 35.2142 1.34121 -5.29477
head 15.8338 -0.226892 -2.00671
rclavicle -6.58474e-015 1.94809e-014
rhumerus -31.8059 -17.6767 -70.3961
rradius 17.8341
rwrist -1.61445
rhand -18.9463 8.09414
rfingers 7.12502
rthumb 7.35698 -21.758
lclavicle -6.58474e-015 1.94809e-014
lhumerus -29.9328 2.89546 83.7147
lradius 33.354
lwrist 8.182
lhand -13.2873 32.8582
lfingers 7.12502
lthumb 12.8162 62.4448
rfemur -21.1137 -6.75622 21.8938
rtibia 44.3178
rfoot -13.3156 -12.4537
rtoes 7.72278
lfemur -6.35258 4.213 -17.4732
ltibia 24.0492
lfoot -17.7905 -1.41788
ltoes 1.8146
523
root 1.18009 18.0017 -7.02311 4.3511 1.12737 -5.85719
lowerback -3.012 -0.303513 -2.21242
upperback -0.599244 -0.397871 5.09076
thorax 1.1252 -0.213775 6.51915
lowerneck -19.6362 -0.544606 -0.144385
upperneck 34.9012 1.20102 -5.09783
head 15.6705 -0.260254 -1.92882
rclavicle 4.79568e-015 1.59028e-014
rhumerus -32.0189 -18.2456 -70.0701
rradius 17.4639
rwrist -0.844464
rhand -18.6386 7.8207
rfingers 7.12502
rthumb 7.65395 -22.0208
lclavicle 4.79568e-015 1.59028e-014
lhumerus -30.1687 2.8155 83.863
lradius 33.1449
lwrist 8.05619
lhand -13.0348 33.5595
lfingers 7.12502
lthumb 13.0596 63.1306
rfemur -20.6874 -6.67784 21.7051
rtibia 44.1472
rfoot -13.1164 -12.4703
rtoes 6.64775
lfemur -6.34524 4.22905 -17.5219
ltibia 23.9794
lfoot -17.83 -1.33982
ltoes 0.999277
524
root 1.15962 18.0057 -7.03113 4.3962 1.19324 -5.87414
lowerback -3.0741 -0.30081 -2.29759
upperback -0.704516 -0.38852 5.10402
thorax 1.05076 -0.205365 6.58277
lowerneck -19.7031 -0.617317 -0.105177
upperneck 34.6609 1.0642 -5.09311
head 15.5634 -0.310336 -1.95183
rclavicle -1.0312e-014 -1.78906e-014
rhumerus -32.22 -18.6648 -69.7954
rradius 17.2015
rwrist -0.225923
rhand -18.3737 7.92407
rfingers 7.12502
rthumb 7.90971 -21.9079
lclavicle -1.0312e-014 -1.78906e-014
lhumerus -30.2543 2.86815 84.0287
lradius 32.7364
lwrist 7.6525
lhand -12.8611 34.3491
lfingers 7.12502
lthumb 13.2271 63.9094
rfemur -20.2512 -6.55256 21.6556
rtibia 43.9089
rfoot -13.0469 -12.5213
rtoes 6.25883
lfemur -6.40472 4.06325 -17.4364
ltibia 23.9411
lfoot -17.8356 -1.1405
ltoes -0.550644
